<svg xmlns="http://www.w3.org/2000/svg" viewBox="0 0 37 25" width="20" height="20" fill="currentColor">
  <path d="M28.49 20.49l-.01 2.15H2.42l.03-14.54h3.45V5.7H.1v1.51l-.04 16.76h.01v.14l28.42.05h2.35v-4.5H28.49Z"/>
  <path d="M8.95 22.61H2.42v2.37h6.53V22.61Z"/>
  <path d="M2.42 24.97l.01-6.53H.06l-.01 6.53H2.42Z"/>
  <path d="M2.43 18.43l.01-6.53H.07l-.01 6.53H2.43Z"/>
  <path d="M15.45 22.61H8.92v2.37h6.53V22.61Z"/>
  <path d="M21.99 22.62h-6.53v2.37h6.53v-2.37Z"/>
  <path d="M28.52 22.64h-6.53v2.37h6.53v-2.37Z"/>
  <path d="M30.84 25.01l.01-5.62h-2.37l-.01 5.62h2.37Z"/>
  <path d="M5.32 19.9h30.77l.04-19.25H5.36L5.32 19.9Z"/>
  <path d="M10.54 11.77h.2c.77.01 1.39-.61 1.39-1.38v-.2c.01-.77-.61-1.39-1.39-1.39h-.2a1.38 1.38 0 0 0-1.39 1.38v.2c0 .76.61 1.38 1.39 1.39Z"/>
  <path d="M20.73 15.15a4.79 4.79 0 1 0 0-9.58 4.79 4.79 0 0 0 0 9.58Z"/>
  <path d="M30.72 11.8h.2c.77.01 1.39-.61 1.39-1.38v-.2a1.39 1.39 0 0 0-1.39-1.39h-.2a1.38 1.38 0 0 0-1.39 1.38v.2c0 .76.62 1.38 1.39 1.39Z"/>
</svg>
